<?xml version="1.0" encoding="UTF-8"?>
<!DOCTYPE svg PUBLIC "-//W3C//DTD SVG 1.1//EN" "http://www.w3.org/Graphics/SVG/1.1/DTD/svg11.dtd">
<!-- Creator: CorelDRAW -->
<svg xmlns="http://www.w3.org/2000/svg" xml:space="preserve" width="40.591mm" height="27.085mm" version="1.1" style="shape-rendering:geometricPrecision; text-rendering:geometricPrecision; image-rendering:optimizeQuality; fill-rule:evenodd; clip-rule:evenodd"
viewBox="0 0 342.29 228.4"
 xmlns:xlink="http://www.w3.org/1999/xlink"
 xmlns:xodm="http://www.corel.com/coreldraw/odm/2003">
 <defs>
  <style type="text/css">
   <![CDATA[
    .fil1 {fill:none}
    .fil0 {fill:white;fill-rule:nonzero}
   ]]>
  </style>
 </defs>
 <g id="Camada_x0020_1">
  <metadata id="CorelCorpID_0Corel-Layer"/>
  <path class="fil0" d="M71.51 90.78c-4.31,0 -7.8,-3.49 -7.8,-7.8 0,-4.31 3.49,-7.8 7.8,-7.8l37.5 0c4.31,0 7.8,3.49 7.8,7.8 0,4.31 -3.49,7.8 -7.8,7.8l-37.5 0zm-6.65 64.5c-4.31,0 -7.8,-3.49 -7.8,-7.8 0,-4.31 3.49,-7.8 7.8,-7.8l47.77 0c4.31,0 7.8,3.49 7.8,7.8 0,4.31 -3.49,7.8 -7.8,7.8l-47.77 0zm9.54 -113.54l30.56 0 0.03 0c5.3,0 10.52,1.07 15.39,3.09 4.9,2.03 9.37,4.98 13.13,8.74 3.05,3.05 3.05,7.99 0,11.03 -3.05,3.05 -7.99,3.05 -11.03,0 -2.35,-2.35 -5.08,-4.17 -8.01,-5.38 -2.95,-1.22 -6.18,-1.87 -9.51,-1.87l-0.02 0 -30.53 0c-6.84,0 -13.03,2.77 -17.51,7.25 -4.48,4.48 -7.25,10.68 -7.25,17.52 0,6.84 2.77,13.03 7.25,17.51 4.48,4.48 10.67,7.25 17.51,7.25l38.23 0 0 0c11.15,0 21.24,4.52 28.55,11.83 7.31,7.31 11.83,17.4 11.83,28.55 0,11.15 -4.52,21.24 -11.83,28.55 -7.31,7.31 -17.4,11.83 -28.55,11.83l-0.02 0 -47.72 0 -0.02 0c-5.31,0 -10.54,-1.07 -15.42,-3.09 -4.9,-2.03 -9.37,-4.98 -13.13,-8.74 -3.05,-3.05 -3.05,-7.99 0,-11.03 3.05,-3.05 7.99,-3.05 11.03,0 2.35,2.35 5.08,4.17 8.01,5.38 2.95,1.22 6.18,1.87 9.51,1.87l47.77 0 0.02 0c6.83,-0 13.02,-2.78 17.5,-7.25 4.48,-4.48 7.25,-10.68 7.25,-17.52 0,-6.84 -2.77,-13.03 -7.25,-17.51 -4.48,-4.48 -10.67,-7.25 -17.51,-7.25l-0 0 -38.21 0 -0.02 0c-11.15,0 -21.24,-4.52 -28.55,-11.83 -7.31,-7.31 -11.83,-17.4 -11.83,-28.55 0,-11.15 4.52,-21.24 11.83,-28.55 7.31,-7.31 17.4,-11.83 28.55,-11.83zm182.57 126c-2.14,-3.72 -0.86,-8.47 2.86,-10.61 3.72,-2.14 8.47,-0.85 10.61,2.86l0.01 0.02c10.16,-7.86 17.08,-18.67 20.25,-30.49 3.77,-14.06 2.23,-29.54 -5.49,-43.16 -0.08,-0.12 -0.15,-0.24 -0.22,-0.36 -7.92,-13.72 -20.65,-22.92 -34.83,-26.72 -14.06,-3.77 -29.54,-2.23 -43.16,5.49 -0.12,0.08 -0.24,0.15 -0.36,0.22 -13.72,7.92 -22.93,20.65 -26.72,34.83 -3.77,14.06 -2.23,29.54 5.49,43.16 0.08,0.12 0.15,0.24 0.22,0.36 7.92,13.72 20.65,22.92 34.83,26.72 11.83,3.17 24.66,2.58 36.55,-2.28l-0.04 -0.06zm-49.65 -55.42c-0.35,4.29 -4.12,7.48 -8.41,7.13 -4.29,-0.35 -7.48,-4.12 -7.13,-8.41 0.83,-9.87 4.93,-18.85 11.27,-25.79 6.34,-6.95 14.92,-11.86 24.68,-13.58 4.24,-0.74 8.28,2.1 9.02,6.34 0.74,4.24 -2.1,8.28 -6.34,9.02 -6.27,1.11 -11.78,4.26 -15.84,8.71 -4.07,4.46 -6.71,10.24 -7.24,16.59zm70.97 61.28l14.47 25.06c2.14,3.72 0.86,8.47 -2.86,10.61 -3.72,2.14 -8.47,0.85 -10.61,-2.86l-14.46 -25.05c-15.66,6.97 -32.73,7.98 -48.39,3.78 -18.03,-4.83 -34.21,-16.54 -44.28,-33.98 -0.09,-0.16 -0.18,-0.32 -0.26,-0.48 -9.85,-17.34 -11.83,-37.01 -7.04,-54.86 4.83,-18.03 16.54,-34.21 33.98,-44.28 0.16,-0.09 0.32,-0.18 0.48,-0.26 17.34,-9.85 37.01,-11.83 54.86,-7.04 18.03,4.83 34.21,16.54 44.28,33.98 0.09,0.16 0.18,0.32 0.26,0.48 9.85,17.34 11.83,37.01 7.04,54.86 -4.2,15.68 -13.61,29.96 -27.46,40.05z"/>
  <rect class="fil1" x="0" width="342.29" height="228.4"/>
 </g>
</svg>
